<?xml version="1.0" encoding="utf-8"?>
<!-- Generator: Adobe Illustrator 12.0.0, SVG Export Plug-In . SVG Version: 6.00 Build 51448)  -->
<!DOCTYPE svg PUBLIC "-//W3C//DTD SVG 1.1//EN" "http://www.w3.org/Graphics/SVG/1.1/DTD/svg11.dtd" [
	<!ENTITY ns_svg "http://www.w3.org/2000/svg">
	<!ENTITY ns_xlink "http://www.w3.org/1999/xlink">
]>
<svg  version="1.1" id="Layer_1" xmlns="&ns_svg;" xmlns:xlink="&ns_xlink;" width="156.7" height="172.3"
	 viewBox="0 0 156.7 172.3" overflow="visible" enable-background="new 0 0 156.7 172.3" xml:space="preserve">
<g>
	<path fill="#D16628" d="M152.4,72.3c0.3,1.7,0.7-0.9,0.4,1.1C152.4,73.2,152.1,72.9,152.4,72.3z"/>
	<path fill="#D16628" d="M152.3,78.8c-1.8,15.4-10.7,26.4-19.6,37.4v-1c-1,2-2,3-3,4v-1c-2,3.5-4.2,6.8-6.6,9.8
		c-2.3,3.1-4.8,5.9-7.3,8.6c-2,2.6-3,4.6-6,6.6l-1-1c-1,9-10.9,9-13.9,16c0-1,0-1,0-2c-5,5-8.9,15-15.8,15c-3,0-5.9-7-9.9-9h1
		c-9.9-6-18.8-12-27.7-20c0-1,1-2,2-2c-2-2-5-2-7.9-4c-1-1,0-1,1-1c-1,0-2-1-2.9-0.8c-1.7-0.5-0.6-0.9-1.7-1.6
		c-3.3-1.6-2.3-4.6-6.3-5.6h1c-1,0-2-1-3-2h1c-2-1-4-2-5-4h1c-5-6-10.9-12-13.9-20c0,2,1,2,2,3C2,94.3,0,80.3,0,68.3c0,1,1,1,1,2
		c0-7,0-14,3-20l-1,1c2-2,3-4,3.1-7c0.9-2.5,1.9-5,3.8-7l-1,1c-1-2,2-3,2-5c-3,12,0,1,0,1c9.9-17,26.7-28,45.4-31.3
		c1.1,0.4,2.2-0.5,1.3-0.5C59.4,2.4,62,3,63.4,2.3c2.1-1,4.4-1.4,6.7-1.7c2.4-0.3,4.8-0.4,7.2-0.4c1.9-0.9,2.9,3.1,4.9,0.1h-1
		c2-1,3,1,4,1c-1,1-2,2-2,3c1,0,2,0,3-1h-1c1-1,3-1,4-2c-1,0-1,1-2,1c6.9-1,13.9,1,19.8,3c-1-1-1-1-2-2c3,1,5.9,1,7.9,3
		c-1,0-1,0-2,0c2,2,5.9-2,5.9,3c-1,0-2-1-3-2c2,2,8.9,1,5.9,6c4,0,8.9,0,11.9,3c0,1-2,1-3,1c4,3,6.9-1,8.9,4c-1,0-2-1-3-1
		c1,1,1,1,2,2h-1c3,1,5.9,3,6.9,6c-2-3-5-2-6.9-4c1,1,1,2,2,3v-1c8.9,8,13.9,19,15.8,31c0-1,0-2-1-2c1,2-1,4,1,5c3,3-1,6,1,9
		c-3-2-2-4-1-6c3,4-3-1-1,1c-1-3-2-7-3-10c1,1,1,1,2,2c-7.9-16-16.8-34-35.7-40l1-1c-9.9-6-21.8-6-32.2-7.5c-2.2-0.1-4.4,0-6.6,0.1
		c-2.6,0.3-5.3,0.3-8,0.5c-2.7,0.1-5.3,0.4-7.9,1.1c0.2-0.3,0.1-0.8,0.3-1.1c-0.4,0-3.9,0.6-3,1.6c-6-0.6-10,3.4-14.9,4.4h1
		c-8.9,3.4-16.4,8.9-22.4,15.7c-2,2.3-3.8,4.7-5.4,7.3c-5.9,11-9.9,23-9.9,35v-1c-1.7,20.1,9.4,38,23.4,51.7c2,2,4,3.8,6.1,5.6
		c14.1,13.7,30,26.7,46.8,36.7c-3,0-5,0-7.9,1c4-6,10.9-8,14.9-13v1c5.9-9,14.9-15,21.9-23.4c1.8-2.1,3.8-4.2,5.8-6.2
		c13.9-14.7,29.9-30.3,30.8-51.3C152.5,74.3,152.5,77.3,152.3,78.8"/>
	<path fill="#D16628" d="M152.2,70.3c0.4-0.4,0.6-1.6,1.3-0.6C153,69.8,152.6,70.4,152.2,70.3z"/>
	<path fill="#D16628" d="M148.2,38.4"/>
	<path fill="#D16628" d="M143.3,31.2c0.4-0.1,2,1.2,2.6,2.1C145.1,32.6,144.2,31.9,143.3,31.2z"/>
	<path fill="#D16628" d="M140.1,23.7C140,23.9,139.7,23.8,140.1,23.7z"/>
	<path fill="#D16628" d="M138,24.1c-0.5-0.5-0.6-0.9-0.6-1.3C137.2,23,138.7,23.8,138,24.1z"/>
	<path fill="#D16628" d="M124.3,11.7c-0.4-0.2-1.4-0.4-1.6-1C122.9,11.3,124.9,11.5,124.3,11.7z"/>
	<path fill="#D16628" d="M116.5,8"/>
	<path fill="#D16628" d="M0.4,67.1"/>
	<path fill="#D16628" d="M23.2,124.8c0.8,0.5,0.1,0.7,0.1,0.8C22.8,125,23.9,125.5,23.2,124.8z"/>
	<path fill="#D16628" d="M49.3,147.6"/>
	<path fill="#D16628" d="M4.2,70.2c0.1,1.7,0.8-0.9,0.3,1.1C4.2,71.1,3.9,70.8,4.2,70.2z"/>
	<path fill="#D16628" d="M5.2,77c4.7,13.3,12.6,25.3,19.6,37.3l-1-1c1,1,3,3,4,4h-1c4,3,6.9,7,10.9,10c0,0-1,0-1-0.3
		c5,3.3,8.9,6.3,12.9,11.3l-1,1c6.9,2,10.9,8,15.8,13h-1c6.9,4,17.8,13,23.8,3v1c2-1,5.9-1,6.9-4v1c1-1,1-1,2-2v1
		c4-7,11.9-10,16.8-16c-2,2,4,0,1,2c1-4,5.9-4,6.6-8.4c2.1-2.9,4.3-5.6,7.3-7.6c0,0-1-6-1,0c1-1,1-2,2-3v1c0-2,2-4,3-6v1
		c1-4,5-5,5.9-9v1c1-4,4-8,5.9-11c1,1-2,2-1,3c1-4,3-7,4-11l1,1c-1-5,2-9,2-13v1c2-3-1-7,0-10c0,0,1,1,1,1c-4-11-3-25-11.9-34l1,1
		c-1-1-1-1-2-2h1c-13.9-15-32.7-25-53.3-25.6c-2.9-0.1-5.9,0.1-8.8,0.4c-0.5,0.5-2.3-0.5-2.5,0.5c-0.3-0.4-0.3-0.8,0.1-1.1
		c-1.2,0.6-1.7,0-0.5-0.7C76,5.1,73.2,5.6,73.3,5c0.1-0.5,1-0.3,1.1-0.7c0.2-0.7-3.9,1-1.8,1.6c-0.8,0.1-1.2,0.4-1.5,1.1
		c-0.4,0.8-1.4,0.6-1.7,0.8c0.2-0.1,1.8-0.3,1.4-0.7c-1.2-0.5-2,0.6-3.1,0.5c1.2,0.2,0.1,1.1-0.3,1.2c-1.1-0.2,0.1-0.4-0.3-0.6
		c-0.6-0.3-2.3,0.9-1,1.1c-0.4,1-1.8,0-2.4,0.9C63,9.5,65,8.2,63.2,8.3c0.5,0.7-2.1,1.3-0.8,2.1c-0.7-0.1-0.9-0.5-0.5-1
		c-0.9-0.1-2.1,1.6-2.7,0.5c-1.7,1.5-3.7-0.5-5.6,1.5c1,0,1,0,2,0c-3,2-5.9,2-8.9,4l1-1c-1,0-2,0-3,1h1c-2-1-3,3-5,2c0,0,0-1,0-2
		c-1,1-3,0-3,1c0,0,1,1,1,2c-1,2-3,1-4,1c-1,1,0,1,1,1c-1,1-1,2-3,2c1-1,1-1,2-2c-1,0-3,0-3,1c0,6,1,0,1,0c-3,1,0,6-4,5c1,0,1-1,1-2
		c-1,1-1,1-2,2l1-1c-3,1-3,5-5.9,7c1-2,3-4,3-7c-1,0-2,1-3,2c1,0,1,0,2,0c-3,4-7.9,6-7.9,11c1-1,2-1,3-1c-4,0.5-5.9,3.5-7.3,7.3
		c-1.6,3.7-2.6,7.7-3.6,11.7l-1-1c-1,1-1,3-1,4l1-1c0,3,0,5-2,7c-2-2,2-1,1-3c-1,1-1-2-2,0c-1-4,2-7,1-11c0,1,1,2,1,3
		c1-6,4-12,5.6-17.5c1.5-2.7,3.1-5.3,5-7.7C27,16.8,41.4,7.9,55.8,4c2.9-0.4,5.5-1.5,8.4-2.1c2.7-0.5,5.5-0.8,8.2-1.1
		c2.8-0.3,4.5,0,7.1-0.3c2.9-0.1,5.9-0.1,8.8,0.2c33.5,2.6,68.2,27.6,68.4,64.1c0.1,4.2-0.2,8.5-0.2,12.5v-1c0,1-1,2-1,3h1
		c-5.2,18.8-14.9,35.3-27.3,49.6c-2.1,2.4-4.2,4.7-6.5,7c-13.7,13.4-29.6,23.4-42.5,36.4h1c-10.9-1-14.9-11-21.8-17h1
		c-10.9-5-17.8-16-26.6-23.5c-1.9-2.2-3.7-4.4-5.6-6.6C15.3,109.5,3.7,92.3,2,71.3C3,73.3,5,74.3,5.2,77"/>
	<path fill="#D16628" d="M4.2,68.2c0.5-0.4,0.8-1.5,1.3-0.6C5.1,67.7,4.6,68.3,4.2,68.2z"/>
	<path fill="#D16628" d="M16.5,39.4"/>
	<path fill="#D16628" d="M21,33c0.3,0.3-0.5,1.7-0.9,2.6C20.2,34.7,20.7,33.9,21,33z"/>
	<path fill="#D16628" d="M26.9,28.5c0.7-0.2,0.7,0,0.1,0.6C26.8,29,26.9,28.7,26.9,28.5z"/>
	<path fill="#D16628" d="M26.5,27.6c0.4-0.4,0.8-0.5,1.2-0.6C27.4,26.8,26.9,28.1,26.5,27.6z"/>
	<path fill="#D16628" d="M39.5,18.8c0.3-0.2,0.9-0.8,1.4-0.7C40.3,18.1,39.5,19.4,39.5,18.8z"/>
	<path fill="#D16628" d="M45.7,15"/>
	<path fill="#D16628" d="M149.5,65.5"/>
	<path fill="#D16628" d="M128.5,117.9c-0.3,0.8-0.7,0.2-0.8,0.3C128.2,117.6,127.9,118.7,128.5,117.9z"/>
	<path fill="#D16628" d="M106.4,142.2"/>
</g>
</svg>
