<?xml version="1.0" encoding="utf-8"?>
<!-- Generator: Adobe Illustrator 12.0.0, SVG Export Plug-In . SVG Version: 6.00 Build 51448)  -->
<!DOCTYPE svg PUBLIC "-//W3C//DTD SVG 1.1//EN" "http://www.w3.org/Graphics/SVG/1.1/DTD/svg11.dtd" [
	<!ENTITY ns_svg "http://www.w3.org/2000/svg">
	<!ENTITY ns_xlink "http://www.w3.org/1999/xlink">
]>
<svg  version="1.1" id="Layer_1" xmlns="&ns_svg;" xmlns:xlink="&ns_xlink;" width="70.8" height="68.7"
	 viewBox="0 -23.5 70.8 68.7" overflow="visible" enable-background="new 0 -23.5 70.8 68.7" xml:space="preserve">
<path fill="#E56D38" d="M35.2,28.6c1.1,0,2,0.4,2.8,1.2c0.8,0.8,1.2,1.7,1.2,2.8s-0.4,2-1.2,2.8c-0.8,0.8-1.7,1.2-2.8,1.2
	s-2-0.4-2.8-1.2c-0.8-0.8-1.2-1.7-1.2-2.8s0.4-2,1.2-2.8S34.1,28.6,35.2,28.6z"/>
<path fill="#E56D38" d="M35.2,7c1.1,0,2,0.4,2.8,1.2c0.8,0.8,1.2,1.7,1.2,2.8c0,1.1-0.4,2-1.2,2.8c-0.8,0.8-1.7,1.2-2.8,1.2
	s-2-0.4-2.8-1.2c-0.8-0.8-1.2-1.7-1.2-2.8c0-1.1,0.4-2,1.2-2.8C33.1,7.3,34.1,7,35.2,7z"/>
<path fill="#E56D38" d="M35.2-14.7c1.1,0,2,0.4,2.8,1.2c0.8,0.8,1.2,1.7,1.2,2.8c0,1.1-0.4,2-1.2,2.8c-0.8,0.8-1.7,1.2-2.8,1.2
	s-2-0.4-2.8-1.2s-1.2-1.7-1.2-2.8c0-1.1,0.4-2,1.2-2.8C33.1-14.3,34.1-14.7,35.2-14.7z"/>
</svg>
